/* XPM */
static char *result[] = {
/* columns rows colors chars-per-pixel */
"47 47 118 2 ",
"   c #422622",
".  c #432723",
"X  c #442925",
"o  c #472924",
"O  c #462B27",
"+  c #482923",
"@  c #492A24",
"#  c #4A2B24",
"$  c #4A2B25",
"%  c #4C2C24",
"&  c #4C2C25",
"*  c #4D2D25",
"=  c #4E2D26",
"-  c #482D29",
";  c #492E2A",
":  c #502E25",
">  c #543027",
",  c #563127",
"<  c #5A3528",
"1  c #5C3428",
"2  c #5C3529",
"3  c #5D3629",
"4  c #5F3629",
"5  c #5F372A",
"6  c #4F3431",
"7  c #6E402D",
"8  c #6F402D",
"9  c #7C4730",
"0  c #604946",
"q  c #664F4C",
"w  c #66504C",
"e  c #68514E",
"r  c #695350",
"t  c #735E5B",
"y  c #7C6866",
"u  c #814B32",
"i  c #824B32",
"p  c #874E33",
"a  c #894F34",
"s  c #8A5034",
"d  c #8D5235",
"f  c #9B5330",
"g  c #9B5331",
"h  c #9B5430",
"j  c #9A5431",
"k  c #9B5431",
"l  c #9A5531",
"z  c #9B5531",
"x  c #9B5432",
"c  c #9B5532",
"v  c #9C5431",
"b  c #9C5531",
"n  c #9C5532",
"m  c #9D5532",
"M  c #9E5633",
"N  c #995837",
"B  c #A15D39",
"V  c #A15D3A",
"C  c #A55F3A",
"Z  c #A7613B",
"A  c #A8613B",
"S  c #AD6139",
"D  c #AC6239",
"F  c #AF633B",
"G  c #AA633C",
"H  c #AB633C",
"J  c #B2653C",
"K  c #B2663C",
"L  c #B1673E",
"P  c #B4663C",
"I  c #B4673C",
"U  c #B5673C",
"Y  c #B4663D",
"T  c #B4673D",
"R  c #B5673D",
"E  c #B6673C",
"W  c #B2683E",
"Q  c #B5683D",
"!  c #B6683D",
"~  c #B7683D",
"^  c #B5683E",
"/  c #B4683F",
"(  c #B5693F",
")  c #B6693F",
"_  c #B76A3F",
"`  c #BA6C40",
"'  c #BB6C40",
"]  c #BF6D40",
"[  c #BD6E41",
"{  c #BF6E40",
"}  c #BE6E41",
"|  c #BF6E41",
" . c #BE6F41",
".. c #BD6E42",
"X. c #91807E",
"o. c #928280",
"O. c #9C8D8B",
"+. c #9D8F8D",
"@. c #9F908E",
"#. c #A19391",
"$. c #ADA19F",
"%. c #B0A5A3",
"&. c #B3A7A6",
"*. c #B4A9A7",
"=. c #C5BDBB",
"-. c #C6BDBC",
";. c #C7BEBD",
":. c #C7BFBE",
">. c #CBC3C2",
",. c #D3CDCC",
"<. c #DFDADA",
"1. c #E0DBDB",
"2. c #E9E5E5",
"3. c #F6F5F5",
"4. c #F7F6F5",
"5. c #FEFDFD",
"6. c white",
"7. c None",
/* pixels */
"7.7.7.7.7.7.7.7.7.7.7.7.7.7.7.7.7.7.7.7.7.7.7.k 7.7.7.7.7.7.7.7.7.7.7.7.7.7.7.7.7.7.7.7.7.7.7.",
"7.7.7.7.7.7.7.7.7.7.7.7.7.7.7.7.7.7.7.7.7.7.g k k 7.7.7.7.7.7.7.7.7.7.7.7.7.7.7.7.7.7.7.7.7.7.",
"7.7.7.7.7.7.7.7.7.7.7.7.7.7.7.7.7.7.7.7.7.h k k k h 7.7.7.7.7.7.7.7.7.7.7.7.7.7.7.7.7.7.7.7.7.",
"7.7.7.7.7.7.7.7.7.7.7.7.7.7.7.7.7.7.7.7.k k k k k k k 7.7.7.7.7.7.7.7.7.7.7.7.7.7.7.7.7.7.7.7.",
"7.7.7.7.7.7.7.7.7.7.7.7.7.7.7.7.7.7.7.g k k k k k k k k 7.7.7.7.7.7.7.7.7.7.7.7.7.7.7.7.7.7.7.",
"7.7.7.7.7.7.7.7.7.7.7.7.7.7.7.7.7.7.g k k k k k k k k k v 7.7.7.7.7.7.7.7.7.7.7.7.7.7.7.7.7.7.",
"7.7.7.7.7.7.7.7.7.7.7.7.7.7.7.7.7.j k k k k k k k k k k k v 7.7.7.7.7.7.7.7.7.7.7.7.7.7.7.7.7.",
"7.7.7.7.7.7.7.7.7.7.7.7.7.7.7.7.j k k k k k k k k k k k k k g 7.7.7.7.7.7.7.7.7.7.7.7.7.7.7.7.",
"7.7.7.7.7.7.7.7.7.7.7.7.7.7.7.k k k k k k k k k k k k k k k k g 7.7.7.7.7.7.7.7.7.7.7.7.7.7.7.",
"7.7.7.7.7.7.7.7.7.7.7.7.7.7.j k k k k k k k n F n k k k k k k k j 7.7.7.7.7.7.7.7.7.7.7.7.7.7.",
"7.7.7.7.7.7.7.7.7.7.7.7.7.c k k k k k k k n Q } ~ m k k k k k k k x 7.7.7.7.7.7.7.7.7.7.7.7.7.",
"7.7.7.7.7.7.7.7.7.7.7.7.k k k k k k k k n R } } } ! m k k k k k k k k 7.7.7.7.7.7.7.7.7.7.7.7.",
"7.7.7.7.7.7.7.7.7.7.7.k k k k k k k k b R } } } } } ! m k k k k k k k k 7.7.7.7.7.7.7.7.7.7.7.",
"7.7.7.7.7.7.7.7.7.7.k k k k k k k k b E } } } } } } } ! m k k k k k k k k 7.7.7.7.7.7.7.7.7.7.",
"7.7.7.7.7.7.7.7.7.k k k k k k k k b Q } } } } } } } } } ^ m k k k k k k k l 7.7.7.7.7.7.7.7.7.",
"7.7.7.7.7.7.7.7.k k k k k k k k b Q } } } } } } } } } } } ! m k k k k k k k l 7.7.7.7.7.7.7.7.",
"7.7.7.7.7.7.7.z k k k k k k k b R } } } } } } } } } } } } } ! z k k k k k k k k 7.7.7.7.7.7.7.",
"7.7.7.7.7.7.k k k k k k k k b P } } } } } } } } } } } } } } } T b k k k k k k k z 7.7.7.7.7.7.",
"7.7.7.7.7.7.k k k k k k k b U } } } } } } } } } } } } } } } } } U b k k k k k k k 7.7.7.7.7.7.",
"7.7.7.7.7.7.k k k k k k b Y } } } } } } [ C p 9 p C [ } } } } } } Y b k k k k k k 7.7.7.7.7.7.",
"7.7.7.7.7.7.k k k k k n I } } } } } } Z 2           3 A } } } } } } I n k k k k k 7.7.7.7.7.7.",
"7.7.7.7.7.7.7.k k k k S } } } } } } B o       6 O     + V } } } } } } D k k k k 7.7.7.7.7.7.7.",
"7.7.7.7.7.7.7.7.7.7.7.7.} } } } } ) &       q 5.3.$.-   * _ } } } } } 7.7.7.7.7.7.7.7.7.7.7.7.",
"7.7.7.7.7.7.7.7.7.7.7.7.} } } } } u         ; O.,.6.;.    i } } } } } 7.7.7.7.7.7.7.7.7.7.7.7.",
"7.7.7.7.7.7.7.7.7.7.7.7.} } } } } <             . *.6.t   1 } } } } } 7.7.7.7.7.7.7.7.7.7.7.7.",
"7.7.7.7.7.7.7.7.7.7.7.7.} } } } } @   y >.X       0 6.#.  # } } } } } 7.7.7.7.7.7.7.7.7.7.7.7.",
"7.7.7.7.7.7.7.7.7.7.7.7. .} } } } $   @.6.q       w 6.+.  % } } } } { 7.7.7.7.7.7.7.7.7.7.7.7.",
"7.7.7.7.7.7.7.7.7.7.7.7...} } } } 4   r 6.-.-   - :.6.e   5 } } } } | 7.7.7.7.7.7.7.7.7.7.7.7.",
"7.7.7.7.7.7.7.7.7.7.7.7. .} } } } a     &.6.2.=.2.6.%.    s } } } } } 7.7.7.7.7.7.7.7.7.7.7.7.",
"7.7.7.7.7.7.7.7.7.7.7.7.7.} } } } ` >   . o.1.4.<.X..   , ' } } } } 7.7.7.7.7.7.7.7.7.7.7.7.7.",
"7.7.7.7.7.7.7.7.7.7.7.7.7.} } } } } G =               : H } } } } } 7.7.7.7.7.7.7.7.7.7.7.7.7.",
"7.7.7.7.7.7.7.7.7.7.7.7.7.} } } } } } L 7 .       . 8 W } } } } } } 7.7.7.7.7.7.7.7.7.7.7.7.7.",
"7.7.7.7.7.7.7.7.7.7.7.7.7.} } } } } } } } / N d N ( } } } } } } } } 7.7.7.7.7.7.7.7.7.7.7.7.7.",
"7.7.7.7.7.7.7.7.7.7.7.7.7.} } } } } } } } } } } } } } } } } } } } } 7.7.7.7.7.7.7.7.7.7.7.7.7.",
"7.7.7.7.7.7.7.7.7.7.7.7.7.} } } } } } } } } } } } } } } } } } } } ] 7.7.7.7.7.7.7.7.7.7.7.7.7.",
"7.7.7.7.7.7.7.7.7.7.7.7.7...} } } } } } } } } } } } } } } } } } }  .7.7.7.7.7.7.7.7.7.7.7.7.7.",
"7.7.7.7.7.7.7.7.7.7.7.7.7.{ } } } } } } } } } } } } } } } } } } } } 7.7.7.7.7.7.7.7.7.7.7.7.7.",
"7.7.7.7.7.7.7.7.7.7.7.7.7.7.} } } } } } } } } } } } } } } } } } } 7.7.7.7.7.7.7.7.7.7.7.7.7.7.",
"7.7.7.7.7.7.7.7.7.7.7.f k v M M M M M M M M M M M M M M M M M M M v k f 7.7.7.7.7.7.7.7.7.7.7.",
"7.7.7.7.7.7.7.7.7.7.7.g k k k k k k k k k k k k k k k k k k k k k k k g 7.7.7.7.7.7.7.7.7.7.7.",
"7.7.7.7.7.7.7.7.7.7.7.g k k k k k k k k k k k k k k k k k k k k k k k g 7.7.7.7.7.7.7.7.7.7.7.",
"7.7.7.7.7.7.7.7.7.7.7.7.7.7.7.7.7.7.7.7.7.J K K K J 7.7.7.7.7.7.7.7.7.7.7.7.7.7.7.7.7.7.7.7.7.",
"7.7.7.7.7.7.7.7.7.7.7.7.7.7.7.7.7.7.7.7.7.} } } } } 7.7.7.7.7.7.7.7.7.7.7.7.7.7.7.7.7.7.7.7.7.",
"7.7.7.7.7.7.7.7.7.7.7.7.7.7.7.7.7.7.7.7.7.} } } } } 7.7.7.7.7.7.7.7.7.7.7.7.7.7.7.7.7.7.7.7.7.",
"7.7.7.7.7.7.7.7.7.7.7.7.7.7.7.7.7.7.7.7.7.} } } } } 7.7.7.7.7.7.7.7.7.7.7.7.7.7.7.7.7.7.7.7.7.",
"7.7.7.7.7.7.7.7.7.7.7.7.7.7.7.7.7.7.7.7.7.} } } } } 7.7.7.7.7.7.7.7.7.7.7.7.7.7.7.7.7.7.7.7.7.",
"7.7.7.7.7.7.7.7.7.7.7.7.7.7.7.7.7.7.7.7.7.} } } } } 7.7.7.7.7.7.7.7.7.7.7.7.7.7.7.7.7.7.7.7.7."
};