/* XPM */
static char *result[] = {
/* columns rows colors chars-per-pixel */
"48 48 76 1 ",
"  c #020403",
". c #040906",
"X c #050C09",
"o c #080E0A",
"O c #06120D",
"+ c #0A130E",
"@ c #071610",
"# c #0C1712",
"$ c #0B1C14",
"% c #101B15",
"& c #0C2117",
"* c #0D251A",
"= c #0E2B1D",
"- c #15251D",
"; c #112D20",
": c #1A2C22",
"> c #113424",
", c #1D3227",
"< c #123927",
"1 c #1F372A",
"2 c #153D2B",
"3 c #213A2E",
"4 c #243F30",
"5 c #16432E",
"6 c #174B33",
"7 c #184B34",
"8 c #195337",
"9 c #1B563B",
"0 c #1D5C3E",
"q c #274334",
"w c #284636",
"e c #2B4A3A",
"r c #2F523F",
"t c #1D5F41",
"y c #315441",
"u c #375E49",
"i c #1F6344",
"p c #206645",
"a c #206847",
"s c #216C49",
"d c #3A644D",
"f c #24734E",
"g c #3E6C53",
"h c #257651",
"j c #267A53",
"k c #406F56",
"l c #44765B",
"z c #477B5F",
"x c #497E62",
"c c #288257",
"v c #29845A",
"b c #2B8B5E",
"n c #2D9264",
"m c #309C6B",
"M c #33A26F",
"N c #34A671",
"B c #35AB75",
"V c #37B179",
"C c #38B47B",
"Z c #4B8365",
"A c #4D8668",
"S c #4F896A",
"D c #528E6E",
"F c #53906F",
"G c #559472",
"H c #589976",
"J c #5B9E7A",
"K c #5DA27D",
"L c #5FA580",
"P c #64AD86",
"I c #6AB98E",
"U c #6CBC91",
"Y c #6FC195",
"T c #71C497",
"R c #71C598",
"E c black",
/* pixels */
"EEEEEEEEEEEEEEEEEEEEEEEEEEEEEEEEEEEEEEEEEEEEEEEE",
"EEEEEEEEEEEEEEEEEEEEEEEEEEEEEEEEEEEEEEEEEEEEEEEE",
"EEEEEEEEEEEEEEEEEEEEEEEEEEEEEEEEEEEEE EEEEEEEEEE",
"EEEEEEEEEEEEEEEEEEEEEEEEEEEEEEEEEEEE EEEEEEEEEEE",
"EEEEEEEEEEEEEEEEEEEEEEEEEEEEEEEEEEo EEEEEEEEEEEE",
"EEEEEEEEEEEEEEEEEEEEEEEEEEEEEEEEEX oEEEEEEEEEEEE",
"EEEEEEEEEEEEEEEEE EEEEEEEEEEEEEEXo.EEEEEEEEEEEEE",
"EEEEEEEEEEEEEEEEEXXEEEEEEEEEEEEE#4.EEEEEEEEEEEEE",
"EEEEEEEEEEEEEEEEEO.EEEEEEEEEEEEoG.EEEEEEEEEEEEEE",
"EEEEEEEEEEEEEEEEE.7 EEEEEEEEEE.Hd.EEEEEEEEEEEEEE",
"EEEEEE EEEEEEEEEEE<iXEEEEEEEEodT+EEEEEEEEEEEEEEE",
"EEEEEEX EEEEEEEEEEOVOEEEEEEE.-TDoEEEEEEEEEEEEEEE",
"EEEEEEE .EEEEEEEEE.mf.EEEEEE.PReEEEEEEEEEEEEEEEE",
"EEEEEEEE .EEEEEEEEXfV+EEEEEogRT.EEEEEEE EEEEEEEE",
"EEEEEEEE.>XEEEEEEEE2CaXEEEE#TRDoEEEEE. EEEEEEEEE",
"EEEEEEEE.5*.EEEEEEEXCN.EEE.DRReEEEEE.O.EEEEEEEEE",
"EEEEEEEEE n.EEEEEEE.mC>EEE:RRRoEEE Oh.EEEEEEEEEE",
"EEEEEEEEEXth.EEEEEEOjCjoE.GRRJoEEX&B5 EEEEEEEEEE",
"EEEEEEEEEE@V>.EEEEE 9CN.E:TRRdoEO*BM EEEEEEEEEEE",
"EEEEEEEEEEovm.EEEEEE;CC@ STRR-E.*BCiXEEEEEEEEEEE",
"EEEEEEEEEEE5Ct.EEEEEOCC7%RRRU.EOBCC&EEEEEEEEEEEE",
"EEEEEEEEEEE.VVoEEEEE CC<lRRRZ.XnCCm.EEEEEEEEEEEE",
"EEEEEEEEEEEovCsXEEEE.NN.IRRRw hCCCiXEEEEEEEEEEEE",
"EEEEEEEEEEEE5CVOEEEEXniqRRRTo>CCCC>EEEEEEE. EEEE",
"EEEEEEEEEEEE.VCaXEEEXb*SRRRK.mCCCC.EEEEE   EEEEE",
"EEEEEEEEEEEEXbCB.EEE@soURRRk7CCCCn.EEEE.=O.EEEEE",
"EEEEEEEEEEEE 9CC9oEEo>qTRRR3hCCCCsXEE.Xs5.EEEEEE",
"EEE EEEEEEEEE*CCN EEX xRRRToNCCCV7EE.=vi.EEEEEEE",
"EEEE .EEEEEEE.CCC5EEo PRTTK mCCCC&E.5bbOEEEEEEEE",
"EEEE. .EEEEEEonCCn.Eo#RRRTl hCCCV  6bb8.EEEEEEEE",
"EEEEE.> EEEEE.iCCC$EXeRRRRw$7CCCM 5bbbXEEEEEEEEE",
"EEEEEEO0.EEEEE<CCCiX.xRRRR%p=CCCb$bbbi.EEEEEEEEE",
"EEEEEE.6t.EEEEOCCCN..KRRRU M.VVCs>bbb;EEEEEEEEEE",
"EEEEEEE.v9 EEE.VCCC2 TRRRG-COMCC87bbv EEEEEEEEEE",
"EEEEEEE.8b8.EEXmCCCj:TTRRg7V=bCC;ibbsXEEEEEEEEEE",
"EEEEEEEE.vb5.EXcCCCpyTRRRwaC5hCVOhbb5.EEEEEEEEEE",
"EEEEEEEE.tbb>. iCCC2zRRRR-nC90VV bbb*EEEEEEEEEEE",
"EEEEEEEEE*bbb* 6CCC&JRRRU.VCa7VmObbbOEEEEEEEEEEE",
"EEEEEEEEE.vbbv$=CCC.URRRPoCCh2Cv$bbb.EEEEEEEEEEE",
"EEEEEEEEE.8bbbf$CCm#RRRRZ;CCj;Ch>bbb.EEEEEEEEEEE",
"EEEEEEEEEE*bbbjOCCj1RRRRg6CCb&C05bbb EEEEEEEEEEE",
"EEEEEEEEEE.vbbv.CCtuRRRRyiCCn#C59bbb EEEEEEEEEEE",
"EEEEEEEEEE.fbbb CC1xRRRR,jCCmOC=ibbb EEEEEEEEEEE",
"EEEEEEEEEE.6bbb.BC$JRRRR#nCVBXC@hbbb EEEEEEEEEEE",
"EEEEEEEEEEE ... .. ..X.. .... . .O@@.EEEEEEEEEEE",
"EEEEEEEEEEEEEEEEEEEEEEEEEEEEEEEEEEEEEEEEEEEEEEEE",
"EEEEEEEEEEEEEEEEEEEEEEEEEEEEEEEEEEEEEEEEEEEEEEEE",
"EEEEEEEEEEEEEEEEEEEEEEEEEEEEEEEEEEEEEEEEEEEEEEEE"
};