/* XPM */
static char *result[] = {
/* columns rows colors chars-per-pixel */
"48 48 5 1 ",
"  c #E55100",
". c #E65100",
"X c #E65200",
"o c #FFE0B2",
"O c None",
/* pixels */
"OOOOOOOOOOOOOOOOOOOOOOOOOOOOOOOOOOOOOOOOOOOOOOOO",
"OOOOOOOOOOOOOOOOOOOOOOOOOOOOOOOOOOOOOOOOOOOOOOOO",
"OOOOOOOOOOOOOOOOOOOOOOOOOOOOOOOOOOOOOOOOOOOOOOOO",
"OOOOOOOOOOOOOOOOOOOOOOOOOOOOOOOOOOOOOOOOOOOOOOOO",
"OOOOOOOOOOOOOOOOOOOOOOOOOOOOOOOOOOOOOOOOOOOOOOOO",
"OOOOOOOOOOOOOOOOOOOOOOOOOOOOOOOOOOOOOOOOOOOOOOOO",
"OOOOOOOOOOOOOOOOOOOOOOOOOOOOOOOOOOOOOOOOOOOOOOOO",
"OOOOOOOX.....oo..................oo.....XOOOOOOO",
"OOOOOO.......oo..................oo.......OOOOOO",
"OOOOOX.......oo..................oo........OOOOO",
"OOOOO........oo..................oo........OOOOO",
"OOOOO........oo..................oo........OOOOO",
"OOOOO........oo..................oo........OOOOO",
"OOOOO........oo..................oo........OOOOO",
"OOOOO........oo..................oo........OOOOO",
"OOOOO........oo..................oo........OOOOO",
"OOOOO........oo..................oo........OOOOO",
"OOOOOooooooooooooooooooooooooooooooooooooooOOOOO",
"OOOOOooooooooooooooooooooooooooooooooooooooOOOOO",
"OOOOO..................oo..................OOOOO",
"OOOOO..................oo..................OOOOO",
"OOOOO..................oo..................OOOOO",
"OOOOO..................oo..................OOOOO",
"OOOOO..................oo..................OOOOO",
"OOOOO..................oo..................OOOOO",
"OOOOO..................oo..................OOOOO",
"OOOOO..................oo..................OOOOO",
"OOOOO..................oo..................OOOOO",
"OOOOO..................oo..................OOOOO",
"OOOOOooooooooooooooooooooooooooooooooooooooOOOOO",
"OOOOOooooooooooooooooooooooooooooooooooooooOOOOO",
"OOOOO........oo..................oo........OOOOO",
"OOOOO........oo..................oo........OOOOO",
"OOOOO........oo..................oo........OOOOO",
"OOOOO........oo..................oo........OOOOO",
"OOOOO........oo..................oo........OOOOO",
"OOOOO........oo..................oo........OOOOO",
"OOOOO........oo..................oo........OOOOO",
"OOOOOX.......oo..................oo....... OOOOO",
"OOOOOO.......oo..................oo.......OOOOOO",
"OOOOOOO......oo..................oo..... OOOOOOO",
"OOOOOOOOOOOOOOOOOOOOOOOOOOOOOOOOOOOOOOOOOOOOOOOO",
"OOOOOOOOOOOOOOOOOOOOOOOOOOOOOOOOOOOOOOOOOOOOOOOO",
"OOOOOOOOOOOOOOOOOOOOOOOOOOOOOOOOOOOOOOOOOOOOOOOO",
"OOOOOOOOOOOOOOOOOOOOOOOOOOOOOOOOOOOOOOOOOOOOOOOO",
"OOOOOOOOOOOOOOOOOOOOOOOOOOOOOOOOOOOOOOOOOOOOOOOO",
"OOOOOOOOOOOOOOOOOOOOOOOOOOOOOOOOOOOOOOOOOOOOOOOO",
"OOOOOOOOOOOOOOOOOOOOOOOOOOOOOOOOOOOOOOOOOOOOOOOO"
};