/* XPM */
static char *result[] = {
/* columns rows colors chars-per-pixel */
"48 48 28 1 ",
"  c #D46363",
". c #D96666",
"X c #D66969",
"o c #D96D6D",
"O c #DD7373",
"+ c #DE7778",
"@ c #DE797A",
"# c #E17575",
"$ c #E07778",
"% c #E47C7C",
"& c #E97D7D",
"* c #E47F80",
"= c #E87F80",
"- c #E58383",
"; c #EA8384",
": c #E58788",
"> c #E98789",
", c #E68A8A",
"< c #E98C8C",
"1 c #EA8F90",
"2 c #EC9393",
"3 c #ED9798",
"4 c #EE9A9C",
"5 c #F09595",
"6 c #F19C9D",
"7 c #F19FA1",
"8 c #F2A2A3",
"9 c None",
/* pixels */
"999999999999999999999999999999999999999999999999",
"999999999999999999999999999999999999999999999999",
"999999999999999999999999999999999999999999999999",
"999999999999999999999999999999999999999999999999",
"999999999999999999#&==$%%$%O99999999999999999999",
"999999999999999&%;<<<<,->--%O#999999999999999999",
"9999999999999;;<2<34443<<1,:-O+#9999999999999999",
"99999999999&;<3466346443<32<,%%$#999999999999999",
"999999999&;155778764744423221-:@+O99999999999999",
"99999999;>5678677884877423221:::@OO9999999999999",
"9999999;56888877878448863332,,,,-@O9999999999999",
"999999&578888887878874643332,11,:%O#999999999999",
"999999;7888888878762>9999<3231,,:@@O999999999999",
"999999;8888888873=99999999913211--*O999999999999",
"999999%88888885=999999999999121:,:*$999999999999",
"9999999188888>99999999999999@111,:-+999999999999",
"99999999&<;&9999999999999999;22<,,:+999999999999",
"9999999999999999999999999999>2221,-O999999999999",
"9999999999999999999999999965<22<1:%#999999999999",
"999999999999999999999999965>-:<<:;%9999999999999",
"99999999999999999999999742,@OoooOOo9999999999999",
"9999999999999999999999652:@OoX     9999999999999",
"99999999999999999999655<-@OoX     99999999999999",
"9999999999999999999651>-@OoX     999999999999999",
"99999999999999999952<:@+OoX     9999999999999999",
"999999999999999992<:-@Ooo     X99999999999999999",
"99999999999999999>*@OooX    .9999999999999999999",
"9999999999999999%>OooX      99999999999999999999",
"9999999999999999>4,X      9999999999999999999999",
"999999999999999=584-     99999999999999999999999",
"999999999999999<4872-X. 999999999999999999999999",
"99999999999999%28887<%99999999999999999999999999",
"99999999999999&68866<999999999999999999999999999",
"99999999999999&68883&999999999999999999999999999",
"99999999999999=78871&999999999999999999999999999",
"99999999999999&67872;999999999999999999999999999",
"99999999999999967473<&99999999999999999999999999",
"999999999999999;88862>&999999999999$#OO999999999",
"999999999999999&688762>>%&99999#%%O+OOoo99999999",
"9999999999999999;778433<><--*%%-%%@@%+Oo99999999",
"99999999999999999264464322,:,:-;:--+@@$999999999",
"999999999999999999<674634,311,:,--*O%99999999999",
"9999999999999999999934432221<<-:---#999999999999",
"9999999999999999999999>222221<-;%999999999999999",
"999999999999999999999999999999999999999999999999",
"999999999999999999999999999999999999999999999999",
"999999999999999999999999999999999999999999999999",
"999999999999999999999999999999999999999999999999"
};